<svg width="27" height="26" viewBox="0 0 27 26" fill="none" xmlns="http://www.w3.org/2000/svg">
<path d="M19.6713 13.8557C20.0531 13.8557 20.3626 13.5462 20.3626 13.1644C20.3626 12.7825 20.0531 12.473 19.6713 12.473C19.2895 12.473 18.98 12.7825 18.98 13.1644C18.98 13.5462 19.2895 13.8557 19.6713 13.8557Z" fill="white"/>
<path d="M23.9432 21.3723C23.9432 20.4851 23.2233 19.6666 23.2233 18.1074C23.2233 16.5482 23.7635 16.3736 23.7635 13.11C23.7635 10.4839 22.3919 7.97944 21.8563 6.43547H17.4844C16.9488 7.97944 15.5772 10.4839 15.5772 13.11C15.5772 16.3736 16.1174 16.5482 16.1174 18.1074C16.1174 19.6666 15.3975 20.4851 15.3975 21.3723C15.3601 22.1144 16.039 23.7063 16.9253 23.7524H22.4149C23.3012 23.7063 23.9806 22.1144 23.9432 21.3723ZM19.6703 15.2384C18.5269 15.2384 17.5964 14.3079 17.5964 13.1644C17.5964 12.021 18.5269 11.0904 19.6703 11.0904C20.8138 11.0904 21.7443 12.021 21.7443 13.1644C21.7443 14.3079 20.8138 15.2384 19.6703 15.2384ZM21.6452 2.61011H17.6954V5.05281H21.6452V2.61011Z" fill="white"/>
<path d="M7.90959 17.8654C8.2914 17.8654 8.60092 17.5559 8.60092 17.1741C8.60092 16.7923 8.2914 16.4828 7.90959 16.4828C7.52778 16.4828 7.21826 16.7923 7.21826 17.1741C7.21826 17.5559 7.52778 17.8654 7.90959 17.8654Z" fill="white"/>
<path d="M3.13721 12.519L4.45212 23.7647H11.3677L12.6831 12.519H3.13721ZM7.91015 19.248C6.76623 19.248 5.83616 18.3175 5.83616 17.174C5.83616 16.0305 6.76623 15.1 7.91015 15.1C9.05361 15.1 9.98414 16.0305 9.98414 17.174C9.98414 18.3175 9.05361 19.248 7.91015 19.248Z" fill="white"/>
<path d="M13.1403 8.60168L12.844 11.1366H2.97457L2.67822 8.60168H13.1403Z" fill="white"/>
<path d="M11.1309 7.21899L11.7665 4.93078L14.6182 3.85618L14.1306 2.56238L10.6221 3.88439L9.6958 7.21899H11.1309Z" fill="white"/>
</svg>
