<svg width="100" height="20" viewBox="0 0 100 20" fill="none" xmlns="http://www.w3.org/2000/svg">
<path d="M9.83485 6.72784C9.26076 6.7277 8.69951 6.90277 8.22211 7.23092C7.7447 7.55907 7.37258 8.02557 7.15278 8.57139C6.93299 9.11721 6.87541 9.71785 6.98733 10.2973C7.09924 10.8768 7.37562 11.4092 7.78152 11.827C8.18741 12.2448 8.70459 12.5294 9.26764 12.6447C9.83069 12.7601 10.4143 12.7009 10.9447 12.4749C11.4751 12.2488 11.9285 11.8659 12.2474 11.3747C12.5664 10.8834 12.7366 10.3059 12.7366 9.71502C12.7366 8.9229 12.4309 8.16321 11.8868 7.60303C11.3426 7.04285 10.6045 6.72804 9.83485 6.72784Z" fill="#006491"/>
<path d="M14.2199 13.7242C13.4297 14.6397 12.3878 15.2862 11.2323 15.578C10.0768 15.8698 8.86246 15.7932 7.75031 15.3582C6.63816 14.9233 5.68081 14.1505 5.00528 13.1426C4.32975 12.1347 3.96799 10.9392 3.96799 9.7147C3.96799 8.49024 4.32975 7.29474 5.00528 6.2868C5.68081 5.27886 6.63816 4.50614 7.75031 4.07117C8.86246 3.6362 10.0768 3.55955 11.2323 3.85138C12.3878 4.14322 13.4297 4.78973 14.2199 5.70515C14.9196 4.8946 15.8184 4.29281 16.822 3.96294C15.6634 2.47206 14.0833 1.38844 12.3003 0.861904C10.5173 0.335367 8.61933 0.391917 6.86888 1.02374C5.11843 1.65556 3.60193 2.83144 2.52905 4.38882C1.45616 5.94619 0.879883 7.80814 0.879883 9.71723C0.879883 11.6263 1.45616 13.4883 2.52905 15.0456C3.60193 16.603 5.11843 17.7789 6.86888 18.4107C8.61933 19.0425 10.5173 19.0991 12.3003 18.5726C14.0833 18.046 15.6634 16.9624 16.822 15.4715C15.818 15.1401 14.9191 14.5365 14.2199 13.7242Z" fill="#006491"/>
<path d="M18.2899 6.681C18.2969 6.70199 18.3054 6.72225 18.3117 6.74324C17.5969 6.81863 16.9346 7.16424 16.4531 7.71317C15.9716 8.2621 15.7051 8.97532 15.7051 9.71484C15.7051 10.4544 15.9716 11.1676 16.4531 11.7165C16.9346 12.2655 17.5969 12.6111 18.3117 12.6864C18.9573 10.7378 18.9502 8.62277 18.2913 6.67883L18.2899 6.681Z" fill="#006491"/>
<path d="M60.8614 15.9511C60.8603 15.8965 60.875 15.8428 60.9036 15.7968C60.9323 15.7508 60.9737 15.7146 61.0224 15.6929C61.0711 15.6712 61.125 15.6649 61.1772 15.6749C61.2294 15.6848 61.2776 15.7106 61.3155 15.7488C61.3535 15.787 61.3795 15.836 61.3903 15.8895C61.401 15.943 61.3961 15.9986 61.376 16.0492C61.356 16.0998 61.3217 16.1431 61.2777 16.1736C61.2336 16.2041 61.1817 16.2204 61.1286 16.2204C61.0938 16.2212 61.0592 16.2148 61.0268 16.2016C60.9944 16.1884 60.9649 16.1687 60.94 16.1436C60.9151 16.1185 60.8953 16.0886 60.8818 16.0555C60.8683 16.0225 60.8614 15.987 60.8614 15.9511ZM61.3108 19.4131H60.9472V16.8704H61.3108V19.4131Z" fill="#006491"/>
<path d="M64.427 19.4223C64.2474 19.4716 64.0622 19.496 63.8763 19.4947C63.3095 19.4947 63.0366 19.1921 63.0366 18.5262V17.211H62.4697V16.8701H63.0366V15.8025H63.4002V16.8701H64.2828V17.211H63.4002V18.4936C63.4002 18.9504 63.55 19.1537 63.9347 19.1537C64.0835 19.1514 64.2319 19.1369 64.3785 19.1103L64.427 19.4223Z" fill="#006491"/>
<path d="M67.5174 18.927C67.8439 19.0803 68.1963 19.1663 68.5548 19.1803C68.9296 19.1803 69.2018 19.0261 69.2018 18.7402C69.2018 18.4152 68.8382 18.3544 68.3515 18.2502C67.8163 18.1344 67.5385 17.9643 67.5385 17.546C67.5385 17.0675 67.9071 16.7925 68.5175 16.7925C68.8417 16.7991 69.1629 16.8584 69.4691 16.9684L69.3727 17.2651C69.0879 17.1663 68.7905 17.1105 68.4901 17.0994C68.1103 17.0994 67.8965 17.2485 67.8965 17.5293C67.8965 17.7935 68.1209 17.8543 68.5541 17.9585C69.1421 18.0903 69.5436 18.2061 69.5436 18.7069C69.5436 19.2295 69.1266 19.4937 68.533 19.4937C68.1535 19.4829 67.7795 19.3969 67.4316 19.2404L67.5174 18.927Z" fill="#006491"/>
<path d="M73.325 18.129C73.3314 18.4059 73.2575 18.6785 73.1127 18.9119C72.9678 19.1453 72.7586 19.329 72.5119 19.4394C72.2651 19.5499 71.9919 19.5821 71.7273 19.5319C71.4626 19.4818 71.2185 19.3515 71.0261 19.1579C70.8337 18.9642 70.7018 18.7159 70.6473 18.4447C70.5927 18.1735 70.6179 17.8917 70.7198 17.6354C70.8216 17.379 70.9954 17.1597 71.2189 17.0055C71.4424 16.8513 71.7056 16.7692 71.9747 16.7697C72.1521 16.7596 72.3296 16.7875 72.4959 16.8519C72.6623 16.9162 72.8138 17.0154 72.9408 17.1433C73.0678 17.2712 73.1675 17.4248 73.2337 17.5945C73.2999 17.7642 73.3309 17.9463 73.325 18.129ZM72.9509 18.129C72.9509 17.8619 72.8478 17.6057 72.6642 17.4168C72.4807 17.228 72.2318 17.1219 71.9722 17.1219C71.7127 17.1219 71.4638 17.228 71.2802 17.4168C71.0967 17.6057 70.9936 17.8619 70.9936 18.129C70.9901 18.2636 71.0128 18.3975 71.0604 18.5228C71.108 18.6482 71.1795 18.7624 71.2708 18.8589C71.362 18.9553 71.4711 19.0319 71.5915 19.0843C71.712 19.1366 71.8415 19.1636 71.9722 19.1636C72.103 19.1636 72.2324 19.1366 72.3529 19.0843C72.4734 19.0319 72.5825 18.9553 72.6737 18.8589C72.7649 18.7624 72.8364 18.6482 72.884 18.5228C72.9316 18.3975 72.9544 18.2636 72.9509 18.129Z" fill="#006491"/>
<path d="M74.9925 19.4117H74.6289V15.5031H74.9925V19.4117Z" fill="#006491"/>
<path d="M78.8378 19.3567C78.3925 19.45 77.9391 19.4961 77.4847 19.4942C77.3483 19.511 77.21 19.4957 77.0802 19.4493C76.9504 19.4028 76.8327 19.3266 76.7358 19.2264C76.6389 19.1261 76.5655 19.0044 76.5211 18.8706C76.4768 18.7368 76.4626 18.5944 76.4797 18.4541V16.869H76.8433V18.3824C76.8433 18.8942 77.0944 19.1692 77.5543 19.1692C77.8625 19.1684 78.17 19.1427 78.4742 19.0925V16.869H78.8378V19.3567Z" fill="#006491"/>
<path d="M81.9329 19.4223C81.7533 19.4716 81.5681 19.4959 81.3822 19.4947C80.8153 19.4947 80.5425 19.1921 80.5425 18.5262V17.211H79.9756V16.8701H80.5425V15.8025H80.906V16.8701H81.7887V17.211H80.906V18.4936C80.906 18.9504 81.0559 19.1537 81.4406 19.1537C81.5894 19.1514 81.7378 19.1369 81.8843 19.1103L81.9329 19.4223Z" fill="#006491"/>
<path d="M83.0518 15.9511C83.0507 15.8964 83.0654 15.8427 83.0941 15.7967C83.1228 15.7507 83.1641 15.7146 83.2128 15.6929C83.2616 15.6712 83.3155 15.6649 83.3677 15.6748C83.4199 15.6848 83.468 15.7105 83.506 15.7487C83.5439 15.787 83.5699 15.836 83.5807 15.8895C83.5915 15.943 83.5865 15.9986 83.5665 16.0492C83.5464 16.0998 83.5122 16.1431 83.4681 16.1735C83.424 16.204 83.3722 16.2203 83.3191 16.2203C83.2842 16.2211 83.2496 16.2147 83.2172 16.2015C83.1848 16.1883 83.1553 16.1686 83.1304 16.1436C83.1055 16.1185 83.0857 16.0885 83.0722 16.0555C83.0588 16.0224 83.0518 15.9869 83.0518 15.9511ZM83.5012 19.4131H83.1376V16.8703H83.5012V19.4131Z" fill="#006491"/>
<path d="M87.4901 18.1292C87.4965 18.406 87.4226 18.6784 87.2779 18.9117C87.1332 19.1451 86.9242 19.3288 86.6776 19.4393C86.4309 19.5498 86.1579 19.5822 85.8934 19.5323C85.6288 19.4824 85.3846 19.3524 85.1922 19.1591C84.9997 18.9657 84.8675 18.7177 84.8127 18.4467C84.7578 18.1757 84.7826 17.894 84.884 17.6375C84.9854 17.3811 85.1588 17.1617 85.3819 17.0071C85.6051 16.8526 85.8679 16.77 86.1369 16.7699C86.3145 16.7593 86.4924 16.787 86.6591 16.8511C86.8257 16.9152 86.9776 17.0144 87.1049 17.1423C87.2322 17.2702 87.3322 17.4241 87.3985 17.594C87.4649 17.7639 87.496 17.9462 87.4901 18.1292ZM87.1159 18.1292C87.1194 17.9947 87.0967 17.8608 87.0491 17.7354C87.0015 17.6101 86.93 17.4958 86.8387 17.3994C86.7475 17.3029 86.6384 17.2263 86.518 17.1739C86.3975 17.1216 86.2681 17.0946 86.1373 17.0946C86.0065 17.0946 85.8771 17.1216 85.7566 17.1739C85.6361 17.2263 85.527 17.3029 85.4358 17.3994C85.3446 17.4958 85.2731 17.6101 85.2255 17.7354C85.1779 17.8608 85.1551 17.9947 85.1586 18.1292C85.1551 18.2637 85.1779 18.3976 85.2255 18.523C85.2731 18.6483 85.3446 18.7626 85.4358 18.859C85.527 18.9555 85.6361 19.0321 85.7566 19.0844C85.8771 19.1368 86.0065 19.1637 86.1373 19.1637C86.2681 19.1637 86.3975 19.1368 86.518 19.0844C86.6384 19.0321 86.7475 18.9555 86.8387 18.859C86.93 18.7626 87.0015 18.6483 87.0491 18.523C87.0967 18.3976 87.1194 18.2637 87.1159 18.1292Z" fill="#006491"/>
<path d="M91.1143 17.8265V19.4117H90.7507V17.9141C90.7629 17.8127 90.7533 17.7098 90.7226 17.6127C90.6919 17.5155 90.6408 17.4265 90.573 17.3519C90.5051 17.2774 90.4222 17.219 90.33 17.1811C90.2379 17.1432 90.1387 17.1265 90.0396 17.1324C89.7316 17.1308 89.4241 17.1567 89.1204 17.2099V19.4117H88.7568V16.924C89.2025 16.8332 89.6556 16.7871 90.1099 16.7864C90.2453 16.7745 90.3816 16.7933 90.5091 16.8415C90.6366 16.8896 90.7523 16.966 90.8481 17.0651C90.9438 17.1643 91.0173 17.2839 91.0633 17.4154C91.1093 17.547 91.1267 17.6873 91.1143 17.8265Z" fill="#006491"/>
<path d="M92.3973 18.9267C92.7237 19.0801 93.0762 19.1661 93.4347 19.1801C93.8096 19.1801 94.0817 19.0259 94.0817 18.74C94.0817 18.415 93.7181 18.3542 93.2315 18.25C92.6963 18.1342 92.4185 17.9641 92.4185 17.5457C92.4185 17.0673 92.7877 16.7922 93.3967 16.7922C93.7209 16.7988 94.0421 16.8582 94.3483 16.9681L94.2519 17.2649C93.9673 17.1661 93.6702 17.1103 93.37 17.0991C92.9902 17.0991 92.7764 17.2482 92.7764 17.5291C92.7764 17.7932 93.0008 17.8541 93.434 17.9583C94.0219 18.09 94.4235 18.2058 94.4235 18.7067C94.4235 19.2293 94.0065 19.4935 93.4129 19.4935C93.0334 19.4825 92.6595 19.3965 92.3115 19.2402L92.3973 18.9267Z" fill="#006491"/>
<path d="M30.9756 6.24625V13.7102H29.8841V13.0327C29.0755 13.6322 28.1047 13.9557 27.1081 13.9577C24.8942 13.9577 23.418 12.3226 23.418 9.86241C23.4341 7.4514 24.8456 5.83368 27.1721 5.83368C28.4507 5.82889 29.7261 5.96724 30.9756 6.24625ZM24.5102 9.8957C24.5102 11.7284 25.5694 12.9835 27.2376 12.9835C28.1928 12.9709 29.1196 12.6471 29.8848 12.0584V7.0229C29.0363 6.87868 28.1777 6.80607 27.3177 6.80577C25.473 6.80794 24.5102 8.07967 24.5102 9.89426V9.8957Z" fill="#006491"/>
<path d="M33.3489 13.7138H32.2588V1.9881H33.3496L33.3489 13.7138Z" fill="#006491"/>
<path d="M42.2346 9.86241C42.2681 10.3762 42.1966 10.8914 42.0248 11.375C41.8529 11.8585 41.5845 12.2996 41.2368 12.6699C40.8891 13.0401 40.4699 13.3313 40.0061 13.5245C39.5424 13.7178 39.0445 13.8089 38.5445 13.792C37.6138 13.8188 36.683 13.7414 35.7685 13.5611V17.4414H34.6777V6.24626C35.928 5.97358 37.2024 5.83531 38.4805 5.83368C40.8077 5.83368 42.2023 7.45212 42.2346 9.86241ZM41.1593 9.89426C41.1593 8.07822 40.1965 6.80647 38.3518 6.80647C37.4918 6.80676 36.6332 6.8794 35.7847 7.02363V12.5883C36.6557 12.7691 37.5439 12.8466 38.4319 12.8192C38.8028 12.8301 39.1718 12.761 39.5152 12.6163C39.8586 12.4716 40.1687 12.2544 40.4256 11.9789C40.6825 11.7034 40.8805 11.3756 41.0069 11.0165C41.1333 10.6575 41.1852 10.2752 41.1593 9.89426Z" fill="#006491"/>
<path d="M50.708 8.95476V13.7102H49.6172V9.21895C49.6172 7.74962 48.8154 6.87381 47.4834 6.87381C46.5525 6.86105 45.6242 6.97767 44.7236 7.22051V13.7138H43.6328V1.9881H44.7222V6.1985C45.6924 5.94742 46.6898 5.82579 47.6901 5.83659C48.0964 5.80012 48.5055 5.85584 48.8885 5.99982C49.2716 6.14381 49.6192 6.37254 49.907 6.6699C50.1948 6.96725 50.4157 7.32599 50.5541 7.72078C50.6925 8.11557 50.745 8.53681 50.708 8.95476Z" fill="#006491"/>
<path d="M59.4703 6.24625V13.7102H58.3795V13.0327C57.5711 13.632 56.6005 13.9555 55.6043 13.9577C53.3903 13.9577 51.9141 12.3226 51.9141 9.8624C51.9302 7.45139 53.3418 5.83367 55.6683 5.83367C56.9464 5.82899 58.2212 5.96733 59.4703 6.24625ZM53.0049 9.89569C53.0049 11.7284 54.0633 12.9835 55.7323 12.9835C56.6875 12.9709 57.6143 12.6471 58.3795 12.0584V7.0229C57.531 6.87867 56.6724 6.80606 55.8124 6.80576C53.9677 6.80793 53.0049 8.07966 53.0049 9.89426V9.89569Z" fill="#006491"/>
<path d="M67.2849 7.12064C66.5305 6.91293 65.7552 6.79657 64.9746 6.77394C64.5659 6.74092 64.155 6.79779 63.7693 6.94075C63.3835 7.08372 63.0318 7.30949 62.7374 7.60311C62.443 7.89673 62.2126 8.25148 62.0617 8.64376C61.9107 9.03604 61.8425 9.45689 61.8618 9.87836C61.839 10.2886 61.9005 10.6991 62.0422 11.0832C62.1839 11.4673 62.4026 11.8164 62.6841 12.1077C62.9657 12.399 63.3037 12.626 63.6762 12.7739C64.0486 12.9218 64.4471 12.9873 64.8458 12.9661C65.7146 12.9238 66.5758 12.7798 67.4129 12.5369L67.5887 13.4779C66.69 13.7705 65.7558 13.9318 64.8135 13.957C64.2781 13.9936 63.7412 13.9134 63.2379 13.7216C62.7347 13.5299 62.2765 13.2309 61.8933 12.8443C61.5101 12.4577 61.2105 11.9922 61.0142 11.4782C60.8179 10.9642 60.7292 10.4134 60.7541 9.8617C60.7541 7.38483 62.442 5.79968 64.9092 5.79968C65.7684 5.80653 66.6217 5.9456 67.441 6.21226L67.2849 7.12064Z" fill="#006491"/>
<path d="M77.0136 9.85967C77.0329 10.6901 76.8113 11.5076 76.377 12.2078C75.9427 12.908 75.3156 13.4591 74.5755 13.7907C73.8355 14.1223 73.0162 14.2194 72.2223 14.0696C71.4284 13.9197 70.696 13.5298 70.1184 12.9495C69.5409 12.3692 69.1445 11.625 68.9799 10.8117C68.8152 9.99853 68.8899 9.15329 69.1943 8.38393C69.4986 7.61458 70.0188 6.95604 70.6886 6.49241C71.3583 6.02879 72.1471 5.78111 72.9542 5.78102C73.4872 5.74942 74.0206 5.8325 74.5206 6.02497C75.0206 6.21743 75.4761 6.51505 75.8581 6.89883C76.24 7.28261 76.5401 7.74412 76.739 8.25392C76.938 8.76371 77.0315 9.31059 77.0136 9.85967ZM75.8884 9.85967C75.8944 9.45894 75.8229 9.06098 75.6781 8.68896C75.5332 8.31693 75.3179 7.97828 75.0447 7.6927C74.7715 7.40713 74.4458 7.18033 74.0866 7.02553C73.7274 6.87073 73.3419 6.79101 72.9525 6.79101C72.563 6.79101 72.1775 6.87073 71.8183 7.02553C71.4591 7.18033 71.1334 7.40713 70.8602 7.6927C70.587 7.97828 70.3717 8.31693 70.2268 8.68896C70.082 9.06098 70.0105 9.45894 70.0166 9.85967C70.006 10.2633 70.0742 10.665 70.217 11.041C70.3598 11.4171 70.5744 11.7599 70.8481 12.0492C71.1217 12.3385 71.4489 12.5684 71.8104 12.7254C72.1718 12.8824 72.5602 12.9633 72.9525 12.9633C73.3448 12.9633 73.7331 12.8824 74.0945 12.7254C74.456 12.5684 74.7832 12.3385 75.0569 12.0492C75.3305 11.7599 75.5451 11.4171 75.6879 11.041C75.8307 10.665 75.8989 10.2633 75.8884 9.85967Z" fill="#006491"/>
<path d="M85.8093 13.5611C84.5379 13.8359 83.2398 13.9573 81.9411 13.923C79.7609 13.923 78.251 12.3704 78.251 9.84433C78.251 7.44997 79.647 5.83153 82.0853 5.83153C82.9739 5.81752 83.8599 5.93427 84.7164 6.17823V1.9881H85.8072L85.8093 13.5611ZM79.3277 9.84577C79.3277 11.7277 80.3383 12.9828 82.1352 12.9828C82.9964 12.9971 83.8566 12.9197 84.7023 12.7519V7.15465C83.8837 6.91326 83.0352 6.79645 82.1838 6.80794C80.2884 6.80794 79.327 8.04638 79.327 9.84649L79.3277 9.84577Z" fill="#006491"/>
<path d="M94.4165 9.44982C94.4248 9.74241 94.4086 10.0352 94.3679 10.3249H88.1916C88.2384 11.0617 88.5668 11.7493 89.1049 12.2376C89.643 12.7259 90.3471 12.975 91.0631 12.9306C91.9867 12.9123 92.9038 12.768 93.7905 12.5014L93.967 13.4257C93.0209 13.7576 92.0303 13.9359 91.0308 13.9541C89.984 13.976 88.9717 13.569 88.2164 12.8227C87.4612 12.0764 87.025 11.0519 87.0037 9.97459C86.9825 8.89727 87.3779 7.85539 88.103 7.07814C88.8282 6.30088 89.8237 5.85193 90.8705 5.83005C91.3416 5.79852 91.8138 5.87031 92.256 6.04066C92.6982 6.21101 93.1001 6.47606 93.4354 6.81824C93.7706 7.16042 94.0314 7.57194 94.2005 8.0256C94.3696 8.47925 94.4432 8.9647 94.4165 9.44982ZM88.1571 9.43317H93.4192C93.4445 9.08098 93.397 8.72726 93.2797 8.39539C93.1624 8.06351 92.978 7.76101 92.7387 7.5079C92.4994 7.25478 92.2106 7.0568 91.8915 6.92703C91.5723 6.79725 91.2301 6.73866 90.8873 6.75509C90.5357 6.7397 90.1846 6.79748 89.8551 6.92497C89.5257 7.05246 89.2246 7.24703 88.9699 7.49705C88.7152 7.74708 88.5122 8.04743 88.3729 8.3801C88.2336 8.71277 88.1609 9.07093 88.1592 9.43317H88.1571Z" fill="#006491"/>
<path d="M94.3395 3.68467C94.3395 2.45972 95.2929 1.48218 96.4816 1.48218C97.6824 1.48218 98.6419 2.45972 98.6419 3.68467C98.6419 4.90962 97.6824 5.88717 96.4816 5.88717C95.2929 5.88717 94.3395 4.90962 94.3395 3.68467ZM94.78 3.68467C94.78 4.69239 95.5222 5.47684 96.4816 5.47684C97.4531 5.47684 98.2014 4.69239 98.2014 3.68467C98.2014 2.67696 97.4531 1.8925 96.4816 1.8925C95.5222 1.8925 94.78 2.67696 94.78 3.68467ZM95.7455 4.81308V2.86402H95.5403V2.53817H96.6204C97.0488 2.53817 97.3385 2.80971 97.3385 3.23211C97.3385 3.58209 97.1092 3.78725 96.9221 3.83553V3.8476C96.9221 3.8476 96.9945 3.8657 97.0488 3.96828L97.2842 4.42085C97.3264 4.49326 97.3807 4.49929 97.429 4.49929H97.4954V4.81308H97.2661C97.0971 4.81308 97.0187 4.79497 96.9402 4.64412L96.6265 4.04673C96.5721 3.94415 96.5118 3.93208 96.4213 3.93208H96.1739V4.81308H95.7455ZM96.1739 3.6183H96.5359C96.7592 3.6183 96.904 3.47347 96.904 3.23211C96.904 2.99677 96.7592 2.86402 96.5359 2.86402H96.1739V3.6183Z" fill="#006491"/>
</svg>
